<?xml version="1.0" encoding="UTF-8"?>
<svg width="219px" height="28px" viewBox="0 0 219 28" version="1.1" xmlns="http://www.w3.org/2000/svg" xmlns:xlink="http://www.w3.org/1999/xlink">
    <!-- Generator: Sketch 62 (91390) - https://sketch.com -->
    <title>Paymentwall_logo_light</title>
    <desc>Created with Sketch.</desc>
    <g id="Symbols" stroke="none" stroke-width="1" fill="none" fill-rule="evenodd">
        <g id="Nav-bar/Black" transform="translate(-190.000000, -24.000000)">
            <g id="Paymentwall_logo_light" transform="translate(190.000000, 24.000000)" fill-rule="nonzero">
                <g id="Group" transform="translate(47.376841, 0.532324)" fill="#FFFFFF">
                    <path d="M0.266162029,20.8138707 L0.266162029,0.266162029 L10.5400164,0.266162029 C15.1712357,0.266162029 17.6731587,3.35364157 17.6731587,7.13314238 C17.6731587,10.8061784 15.1712357,13.9468903 10.5400164,13.9468903 L5.5361702,13.9468903 L5.5361702,20.8671031 L0.266162029,20.8138707 L0.266162029,20.8138707 Z M12.2966857,7.07990997 C12.2966857,5.64263502 11.2320376,4.84414893 9.84799508,4.84414893 L5.58940261,4.84414893 L5.58940261,9.26243861 L9.84799508,9.26243861 C11.2320376,9.26243861 12.2966857,8.46395252 12.2966857,7.07990997 Z" id="Shape"></path>
                    <path d="M27.5211538,20.8138707 L27.5211538,19.3233633 C26.6162029,20.4412438 24.8063011,21.1864975 22.8899345,21.1864975 C20.600941,21.1864975 17.7796235,19.6427577 17.7796235,16.2891162 C17.7796235,12.6693126 20.600941,11.4981997 22.8899345,11.4981997 C24.8595335,11.4981997 26.6162029,12.1369885 27.5211538,13.2016366 L27.5211538,11.3917348 C27.5211538,10.1141571 26.4032733,9.20920621 24.4869067,9.20920621 C22.9963993,9.20920621 21.4526595,9.74153026 20.2815466,10.8061784 L18.5781096,7.82516365 C20.4944762,6.17495907 23.0496317,5.5361702 25.3386252,5.5361702 C28.9051964,5.5361702 32.2588379,6.86698035 32.2588379,11.4981997 L32.2588379,20.8138707 L27.5211538,20.8138707 L27.5211538,20.8138707 Z M27.5211538,16.9811375 L27.5211538,15.6503273 C27.0420622,14.958306 25.9241816,14.5856792 24.8595335,14.5856792 C23.5819558,14.5856792 22.4640753,15.1180033 22.4640753,16.2891162 C22.4640753,17.4602291 23.5819558,17.9925532 24.8595335,17.9925532 C25.9241816,18.0457856 27.0420622,17.6731587 27.5211538,16.9811375 Z" id="Shape"></path>
                    <path d="M34.6010638,22.3576104 C34.9204582,22.5173077 35.3995499,22.6237725 35.7721767,22.6237725 C36.8368248,22.6237725 37.5288461,22.4108428 37.7950081,21.772054 L38.1144026,20.9735679 L32.2056055,5.85556464 L37.2094517,5.85556464 L40.5630932,15.2777005 L43.9699672,5.85556464 L48.9738133,5.85556464 L42.2665302,22.8899345 C41.0421849,26.0306464 38.8064238,26.7226677 35.9851063,26.8291325 C35.5592471,26.8291325 34.4413666,26.7226677 33.9622749,26.5629705 L34.6010638,22.3576104 Z" id="Path"></path>
                    <path d="M68.5633387,20.8138707 L68.5633387,11.7643617 C68.5633387,10.6464812 68.0310146,9.74153026 66.5937397,9.74153026 C65.3161619,9.74153026 64.3579786,10.5932488 63.9321194,11.1788052 L63.9321194,20.8138707 L59.1944353,20.8138707 L59.1944353,11.7643617 C59.1944353,10.6464812 58.6621112,9.74153026 57.2248362,9.74153026 C55.9472585,9.74153026 55.0423076,10.5932488 54.563216,11.1788052 L54.563216,20.8138707 L49.8255318,20.8138707 L49.8255318,5.90879705 L54.563216,5.90879705 L54.563216,7.71869884 C55.2020048,6.86698035 57.1183714,5.5361702 59.4605973,5.5361702 C61.5898935,5.5361702 63.0804009,6.4411211 63.6659574,8.19779049 C64.5176758,6.92021276 66.4872749,5.5361702 68.8295007,5.5361702 C71.5975858,5.5361702 73.3010228,6.97344516 73.3010228,10.0076923 L73.3010228,20.8138707 L68.5633387,20.8138707 L68.5633387,20.8138707 Z" id="Path"></path>
                    <path d="M74.7915302,13.3613339 C74.7915302,9.04950899 78.0387069,5.58940261 82.7231586,5.58940261 C87.1414483,5.58940261 90.3353927,8.83657936 90.3353927,13.8936579 L90.3353927,14.9050736 L79.7421439,14.9050736 C80.0083059,16.2891162 81.3391161,17.5666939 83.4684123,17.5666939 C84.5330604,17.5666939 86.3429622,17.0876023 87.1414483,16.2891162 L89.1642797,19.2701309 C87.6737724,20.600941 85.2250817,21.2397299 82.9360883,21.2397299 C78.3581014,21.1864975 74.7915302,18.2054828 74.7915302,13.3613339 Z M82.7231586,9.20920621 C80.6470948,9.20920621 79.8486087,10.6997136 79.6889115,11.7643617 L85.8106382,11.7643617 C85.7041734,10.6997136 84.9056873,9.20920621 82.7231586,9.20920621 Z" id="Shape"></path>
                    <path d="M101.886825,20.8138707 L101.886825,12.1902209 C101.886825,10.3803191 100.928641,9.74153026 99.4381341,9.74153026 C98.0008591,9.74153026 97.0959082,10.4867839 96.5635841,11.1788052 L96.5635841,20.8138707 L91.8259,20.8138707 L91.8259,5.90879705 L96.5635841,5.90879705 L96.5635841,7.71869884 C97.468535,6.65405073 99.2252044,5.5361702 101.727128,5.5361702 C105.134001,5.5361702 106.677741,7.50576922 106.677741,10.2738543 L106.677741,20.8138707 L101.886825,20.8138707 L101.886825,20.8138707 Z" id="Path"></path>
                    <path d="M109.924918,16.7682078 L109.924918,10.0609247 L107.476227,10.0609247 L107.476227,5.90879705 L109.924918,5.90879705 L109.924918,1.8631342 L114.662602,1.8631342 L114.662602,5.90879705 L117.696849,5.90879705 L117.696849,10.0609247 L114.662602,10.0609247 L114.662602,15.4906301 C114.662602,16.3423486 115.141694,16.9811375 115.993412,16.9811375 C116.525736,16.9811375 117.05806,16.8214402 117.217758,16.6085106 L118.122708,20.1750818 C117.537152,20.7074059 116.366039,21.1864975 114.60937,21.1864975 C111.575123,21.1864975 109.924918,19.6427577 109.924918,16.7682078 Z" id="Path"></path>
                    <polygon id="Path" points="133.506874 20.8138707 130.685556 11.6046645 127.917471 20.8138707 122.80716 20.8138707 118.388871 5.90879705 123.233019 5.90879705 125.628478 15.0115384 128.55626 5.90879705 132.76162 5.90879705 135.689402 15.0115384 138.084861 5.90879705 142.982242 5.90879705 138.563952 20.8138707"></polygon>
                    <path d="M152.564075,20.8138707 L152.564075,19.3233633 C151.659124,20.4412438 149.849222,21.1864975 147.932856,21.1864975 C145.643862,21.1864975 142.822545,19.6427577 142.822545,16.2891162 C142.822545,12.6693126 145.643862,11.4981997 147.932856,11.4981997 C149.902455,11.4981997 151.659124,12.1369885 152.564075,13.2016366 L152.564075,11.3917348 C152.564075,10.1141571 151.446195,9.20920621 149.529828,9.20920621 C148.039321,9.20920621 146.495581,9.74153026 145.324468,10.8061784 L143.621031,7.82516365 C145.537397,6.17495907 148.092553,5.5361702 150.381546,5.5361702 C153.948118,5.5361702 157.301759,6.86698035 157.301759,11.4981997 L157.301759,20.8138707 L152.564075,20.8138707 L152.564075,20.8138707 Z M152.564075,16.9811375 L152.564075,15.6503273 C152.084983,14.958306 150.967103,14.5856792 149.902455,14.5856792 C148.624877,14.5856792 147.506997,15.1180033 147.506997,16.2891162 C147.506997,17.4602291 148.624877,17.9925532 149.902455,17.9925532 C150.967103,18.0457856 152.084983,17.6731587 152.564075,16.9811375 Z" id="Shape"></path>
                    <polygon id="Path" points="159.75045 20.8138707 159.75045 0.266162029 164.488134 0.266162029 164.488134 20.8138707"></polygon>
                    <polygon id="Path" points="166.723895 20.8138707 166.723895 0.266162029 171.461579 0.266162029 171.461579 20.8138707"></polygon>
                </g>
                <g id="Group" fill="#FFC013">
                    <polygon id="Path" points="27.7873158 21.3994271 30.0763093 15.1712357 30.0763093 15.1712357 38.5934942 15.1712357 40.8824877 21.3994271 40.8824877 21.3994271"></polygon>
                    <polygon id="Path" points="14.2130524 21.3994271 16.5020458 15.1712357 16.5020458 15.1712357 25.0192307 15.1712357 27.3082242 21.3994271 27.3082242 21.3994271"></polygon>
                    <g transform="translate(6.920213, 7.452537)" id="Path">
                        <polygon points="14.0533551 6.54758591 16.3423486 0.266162029 24.8595335 0.266162029 27.0952946 6.54758591"></polygon>
                        <polygon points="0.372626841 6.54758591 2.66162029 0.266162029 11.1788052 0.266162029 13.4145663 6.54758591 13.4145663 6.54758591"></polygon>
                    </g>
                    <polygon id="Path" points="0.479091652 21.3994271 2.7148527 15.1712357 2.7148527 15.1712357 11.28527 15.1712357 13.5742635 21.3994271 13.5742635 21.3994271"></polygon>
                    <polygon id="Path" points="14.2130524 6.60081832 16.4488134 0.319394435 24.9659983 0.319394435 27.2549918 6.60081832"></polygon>
                </g>
            </g>
        </g>
    </g>
</svg>